# xmcd CD database file
#
# Track frame offsets:
#	150
#	17483
#	45337
#	70888
#	89126
#	116046
#	141602
#	170859
#	207926
#	225675
#	251587
#	273156
#	298834
#	314609
#
# Disc length: 4508 seconds
#
# Revision: 0
# Processed by: cddbd v1.5.2PL0 Copyright (c) Steve Scherf et al.
# Submitted via: CDex 1.51
#
DISCID=db119a0e
DTITLE=Jane Bunnett - Mundo: The World of Jane Bunnett [CD1]
DYEAR=2012
DGENRE=Jazz
TTITLE0=Cotcha'
TTITLE1=Kaleidoscope
TTITLE2=Witchi Tia To
TTITLE3=For Merceditas
TTITLE4=Yo Siempre Oddara
TTITLE5=The Real Truth
TTITLE6=El Diablo
TTITLE7=New Orleans Under Water
TTITLE8=Osain
TTITLE9=Changui Para Alfredo
TTITLE10=Please Don't Ever Leave Me
TTITLE11=Serenade to a Cuckoo
TTITLE12=Chamalongo
TTITLE13=Sunshower
EXTD=YEAR: 2012
EXTT0=
EXTT1=
EXTT2=
EXTT3=
EXTT4=
EXTT5=
EXTT6=
EXTT7=
EXTT8=
EXTT9=
EXTT10=
EXTT11=
EXTT12=
EXTT13=
PLAYORDER=
